<svg width="40" height="40" viewBox="0 0 40 40" fill="none" xmlns="http://www.w3.org/2000/svg">
<path d="M24.1313 32.29L22.513 33.855C22.2025 34.2117 21.8196 34.4982 21.3898 34.6955C20.9599 34.8928 20.4931 34.9964 20.0202 34.9994C19.5472 35.0024 19.0791 34.9047 18.6468 34.7129C18.2146 34.521 17.8281 34.2394 17.513 33.8867L8.33301 25C5.83301 22.5 3.33301 19.6667 3.33301 15.8333C3.33304 13.9787 3.89566 12.1676 4.94656 10.6394C5.99746 9.11124 7.4872 7.93776 9.21902 7.27399C10.9508 6.61023 12.8433 6.4874 14.6464 6.92174C16.4495 7.35607 18.0784 8.32713 19.318 9.70666C19.4053 9.80002 19.5109 9.87445 19.6281 9.92533C19.7454 9.97621 19.8719 10.0025 19.9997 10.0025C20.1275 10.0025 20.254 9.97621 20.3712 9.92533C20.4885 9.87445 20.594 9.80002 20.6813 9.70666C21.9171 8.31816 23.5464 7.33894 25.3524 6.89933C27.1584 6.45972 29.0555 6.58057 30.7911 7.2458C32.5268 7.91103 34.0186 9.08908 35.0682 10.6232C36.1178 12.1572 36.6752 13.9746 36.6663 15.8333C36.6658 16.6744 36.5429 17.511 36.3013 18.3167M24.9997 25H34.9997M29.9997 20V30" stroke="#2E7D32" stroke-width="2" stroke-linecap="round" stroke-linejoin="round"/>
</svg>
